<svg width="26" height="26" viewBox="0 0 26 26" fill="none" xmlns="http://www.w3.org/2000/svg">
<path d="M9.4 25H16.6C22.6 25 25 22.6 25 16.6V9.4C25 3.4 22.6 1 16.6 1H9.4C3.4 1 1 3.4 1 9.4V16.6C1 22.6 3.4 25 9.4 25Z" stroke="#656565" stroke-width="2" stroke-linecap="round" stroke-linejoin="round"/>
<path d="M13 17.2C15.3196 17.2 17.2 15.3196 17.2 13C17.2 10.6804 15.3196 8.80005 13 8.80005C10.6804 8.80005 8.80005 10.6804 8.80005 13C8.80005 15.3196 10.6804 17.2 13 17.2Z" stroke="#656565" stroke-width="2" stroke-linecap="round" stroke-linejoin="round"/>
<path d="M19.7633 7H19.7772" stroke="#656565" stroke-width="3" stroke-linecap="round" stroke-linejoin="round"/>
</svg>
