<svg width="21" height="24" viewBox="0 0 21 24" fill="none" xmlns="http://www.w3.org/2000/svg">
<path d="M10.4634 14.4156C8.08681 14.4156 6.14539 12.4853 6.14539 10.0976C6.14539 7.70988 8.08681 5.79077 10.4634 5.79077C12.84 5.79077 14.7814 7.72104 14.7814 10.1087C14.7814 12.4964 12.84 14.4156 10.4634 14.4156ZM10.4634 7.46441C9.01293 7.46441 7.81903 8.64712 7.81903 10.1087C7.81903 11.5704 9.00178 12.7531 10.4634 12.7531C11.9251 12.7531 13.1078 11.5704 13.1078 10.1087C13.1078 8.64712 11.9139 7.46441 10.4634 7.46441Z" fill="#656565"/>
<path d="M10.4621 24C8.81077 24 7.14827 23.3752 5.85399 22.1367C2.5625 18.9679 -1.07488 13.9135 0.297508 7.89958C1.536 2.44351 6.3003 0 10.4621 0H10.4733C14.635 0 19.3993 2.44351 20.6378 7.91074C21.9991 13.9247 18.3617 18.9679 15.0702 22.1367C13.7759 23.3752 12.1134 24 10.4621 24ZM10.4621 1.67364C7.21522 1.67364 3.04228 3.40307 1.93768 8.26778C0.732654 13.523 4.0353 18.053 7.02554 20.9205C8.95582 22.7838 11.9795 22.7838 13.9098 20.9205C16.8889 18.053 20.1915 13.523 19.0088 8.26778C17.8931 3.40307 13.709 1.67364 10.4621 1.67364Z" fill="#656565"/>
</svg>
