<svg width="34" height="29" viewBox="0 0 34 29" fill="none" xmlns="http://www.w3.org/2000/svg">
<path d="M32.6923 3.78261H1.30769C0.592821 3.78261 0 2.92522 0 1.8913C0 0.857391 0.592821 0 1.30769 0H32.6923C33.4072 0 34 0.857391 34 1.8913C34 2.92522 33.4072 3.78261 32.6923 3.78261Z" fill="black"/>
<path d="M32.6923 16.3913H1.30769C0.592821 16.3913 0 15.5339 0 14.5C0 13.4661 0.592821 12.6087 1.30769 12.6087H32.6923C33.4072 12.6087 34 13.4661 34 14.5C34 15.5339 33.4072 16.3913 32.6923 16.3913Z" fill="black"/>
<path d="M32.6923 29H1.30769C0.592821 29 0 28.1426 0 27.1087C0 26.0748 0.592821 25.2174 1.30769 25.2174H32.6923C33.4072 25.2174 34 26.0748 34 27.1087C34 28.1426 33.4072 29 32.6923 29Z" fill="black"/>
</svg>
