<svg width="36" height="36" viewBox="0 0 36 36" fill="none" xmlns="http://www.w3.org/2000/svg">
<path d="M32.9448 35.1382C32.3872 35.1382 31.8297 34.9329 31.3895 34.4929L21.5002 24.6096C20.6492 23.7588 20.6492 22.3507 21.5002 21.5C22.3512 20.6493 23.7597 20.6493 24.6107 21.5L34.5 31.3833C35.351 32.234 35.351 33.6421 34.5 34.4929C34.0598 34.9329 33.5023 35.1382 32.9448 35.1382Z" fill="black"/>
<path d="M28 14C28 21.732 21.732 28 14 28C6.26801 28 0 21.732 0 14C0 6.26801 6.26801 0 14 0C21.732 0 28 6.26801 28 14ZM4.09314 14C4.09314 19.4714 8.52859 23.9069 14 23.9069C19.4714 23.9069 23.9069 19.4714 23.9069 14C23.9069 8.52859 19.4714 4.09314 14 4.09314C8.52859 4.09314 4.09314 8.52859 4.09314 14Z" fill="black"/>
</svg>
