<svg width="30" height="24" viewBox="0 0 30 24" fill="none" xmlns="http://www.w3.org/2000/svg">
<path d="M21.9767 24H8.02326C3.22326 24 0 20.832 0 16.1143V7.88571C0 3.168 3.22326 0 8.02326 0H21.9767C26.7767 0 30 3.168 30 7.88571V16.1143C30 20.832 26.7767 24 21.9767 24ZM8.02326 2.05714C4.42326 2.05714 2.09302 4.34743 2.09302 7.88571V16.1143C2.09302 19.6526 4.42326 21.9429 8.02326 21.9429H21.9767C25.5767 21.9429 27.907 19.6526 27.907 16.1143V7.88571C27.907 4.34743 25.5767 2.05714 21.9767 2.05714H8.02326Z" fill="#656565"/>
<path d="M13.0322 16.8413C12.6275 16.8413 12.2368 16.7453 11.8879 16.5533C11.0786 16.1008 10.6041 15.1819 10.6041 14.0436V9.98419C10.6041 8.84593 11.0646 7.92709 11.8879 7.47452C12.6973 7.02195 13.7436 7.10419 14.7343 7.6939L18.181 9.72362C19.1298 10.2859 19.6739 11.1225 19.6739 12.0139C19.6739 12.9053 19.1298 13.7419 18.181 14.3042L14.7343 16.3339C14.1623 16.663 13.5763 16.8413 13.0322 16.8413ZM13.0322 9.21622C12.9763 9.21622 12.9343 9.22992 12.9064 9.24363C12.8088 9.29848 12.6971 9.54533 12.6971 9.97048V14.0299C12.6971 14.4413 12.8088 14.6882 12.9064 14.7568C13.0181 14.8116 13.2833 14.7842 13.6461 14.5648L17.0925 12.535C17.4413 12.3293 17.567 12.1236 17.567 12.0002C17.567 11.8768 17.4413 11.6848 17.0925 11.4653L13.6461 9.43562C13.3949 9.28476 13.1717 9.21622 13.0322 9.21622Z" fill="#656565"/>
</svg>
